<mxfile modified="2022-06-06T14:06:09.153Z" host="app.diagrams.net" agent="5.0 (Windows NT 10.0; Win64; x64) AppleWebKit/537.36 (KHTML, like Gecko) Chrome/102.0.0.0 Safari/537.36" etag="CV0iFD8AuSlH9FXAd2OU" version="18.1.3" type="github">
  <diagram id="Ht1M8jgEwFfnCIfOTk4-" name="Page-1">
    <mxGraphModel dx="1422" dy="831" grid="1" gridSize="10" guides="1" tooltips="1" connect="1" arrows="1" fold="1" page="1" pageScale="1" pageWidth="1169" pageHeight="827" math="0" shadow="0">
      <root>
        <mxCell id="0" />
        <mxCell id="1" parent="0" />
        <mxCell id="yZAqKWbI97S2XYJJdFXX-1" value="AWS Cloud" style="points=[[0,0],[0.25,0],[0.5,0],[0.75,0],[1,0],[1,0.25],[1,0.5],[1,0.75],[1,1],[0.75,1],[0.5,1],[0.25,1],[0,1],[0,0.75],[0,0.5],[0,0.25]];outlineConnect=0;gradientColor=none;html=1;whiteSpace=wrap;fontSize=12;fontStyle=0;container=1;pointerEvents=0;collapsible=0;recursiveResize=0;shape=mxgraph.aws4.group;grIcon=mxgraph.aws4.group_aws_cloud;strokeColor=#232F3E;fillColor=none;verticalAlign=top;align=left;spacingLeft=30;fontColor=#232F3E;dashed=0;" vertex="1" parent="1">
          <mxGeometry x="350" y="169" width="750" height="481" as="geometry" />
        </mxCell>
        <mxCell id="yZAqKWbI97S2XYJJdFXX-2" value="" style="sketch=0;points=[[0,0,0],[0.25,0,0],[0.5,0,0],[0.75,0,0],[1,0,0],[0,1,0],[0.25,1,0],[0.5,1,0],[0.75,1,0],[1,1,0],[0,0.25,0],[0,0.5,0],[0,0.75,0],[1,0.25,0],[1,0.5,0],[1,0.75,0]];outlineConnect=0;fontColor=#232F3E;gradientColor=#60A337;gradientDirection=north;fillColor=#277116;strokeColor=#ffffff;dashed=0;verticalLabelPosition=bottom;verticalAlign=top;align=center;html=1;fontSize=12;fontStyle=0;aspect=fixed;shape=mxgraph.aws4.resourceIcon;resIcon=mxgraph.aws4.s3;" vertex="1" parent="yZAqKWbI97S2XYJJdFXX-1">
          <mxGeometry x="425.5" y="331" width="78" height="78" as="geometry" />
        </mxCell>
        <mxCell id="yZAqKWbI97S2XYJJdFXX-4" value="" style="sketch=0;points=[[0,0,0],[0.25,0,0],[0.5,0,0],[0.75,0,0],[1,0,0],[0,1,0],[0.25,1,0],[0.5,1,0],[0.75,1,0],[1,1,0],[0,0.25,0],[0,0.5,0],[0,0.75,0],[1,0.25,0],[1,0.5,0],[1,0.75,0]];outlineConnect=0;fontColor=#232F3E;gradientColor=#FF4F8B;gradientDirection=north;fillColor=#BC1356;strokeColor=#ffffff;dashed=0;verticalLabelPosition=bottom;verticalAlign=top;align=center;html=1;fontSize=12;fontStyle=0;aspect=fixed;shape=mxgraph.aws4.resourceIcon;resIcon=mxgraph.aws4.api_gateway;" vertex="1" parent="yZAqKWbI97S2XYJJdFXX-1">
          <mxGeometry x="230" y="153" width="78" height="78" as="geometry" />
        </mxCell>
        <mxCell id="yZAqKWbI97S2XYJJdFXX-5" value="" style="outlineConnect=0;dashed=0;verticalLabelPosition=bottom;verticalAlign=top;align=center;html=1;shape=mxgraph.aws3.lambda_function;fillColor=#F58534;gradientColor=none;" vertex="1" parent="yZAqKWbI97S2XYJJdFXX-1">
          <mxGeometry x="430" y="156" width="69" height="72" as="geometry" />
        </mxCell>
        <mxCell id="yZAqKWbI97S2XYJJdFXX-7" value="" style="sketch=0;points=[[0,0,0],[0.25,0,0],[0.5,0,0],[0.75,0,0],[1,0,0],[0,1,0],[0.25,1,0],[0.5,1,0],[0.75,1,0],[1,1,0],[0,0.25,0],[0,0.5,0],[0,0.75,0],[1,0.25,0],[1,0.5,0],[1,0.75,0]];outlineConnect=0;fontColor=#232F3E;gradientColor=#4D72F3;gradientDirection=north;fillColor=#3334B9;strokeColor=#ffffff;dashed=0;verticalLabelPosition=bottom;verticalAlign=top;align=center;html=1;fontSize=12;fontStyle=0;aspect=fixed;shape=mxgraph.aws4.resourceIcon;resIcon=mxgraph.aws4.dynamodb;" vertex="1" parent="yZAqKWbI97S2XYJJdFXX-1">
          <mxGeometry x="590" y="153" width="78" height="78" as="geometry" />
        </mxCell>
        <mxCell id="yZAqKWbI97S2XYJJdFXX-6" value="" style="sketch=0;points=[[0,0,0],[0.25,0,0],[0.5,0,0],[0.75,0,0],[1,0,0],[0,1,0],[0.25,1,0],[0.5,1,0],[0.75,1,0],[1,1,0],[0,0.25,0],[0,0.5,0],[0,0.75,0],[1,0.25,0],[1,0.5,0],[1,0.75,0]];outlineConnect=0;fontColor=#232F3E;gradientColor=#945DF2;gradientDirection=north;fillColor=#5A30B5;strokeColor=#ffffff;dashed=0;verticalLabelPosition=bottom;verticalAlign=top;align=center;html=1;fontSize=12;fontStyle=0;aspect=fixed;shape=mxgraph.aws4.resourceIcon;resIcon=mxgraph.aws4.route_53;" vertex="1" parent="yZAqKWbI97S2XYJJdFXX-1">
          <mxGeometry x="50" y="153" width="78" height="78" as="geometry" />
        </mxCell>
        <mxCell id="yZAqKWbI97S2XYJJdFXX-3" value="" style="sketch=0;points=[[0,0,0],[0.25,0,0],[0.5,0,0],[0.75,0,0],[1,0,0],[0,1,0],[0.25,1,0],[0.5,1,0],[0.75,1,0],[1,1,0],[0,0.25,0],[0,0.5,0],[0,0.75,0],[1,0.25,0],[1,0.5,0],[1,0.75,0]];outlineConnect=0;fontColor=#232F3E;gradientColor=#945DF2;gradientDirection=north;fillColor=#5A30B5;strokeColor=#ffffff;dashed=0;verticalLabelPosition=bottom;verticalAlign=top;align=center;html=1;fontSize=12;fontStyle=0;aspect=fixed;shape=mxgraph.aws4.resourceIcon;resIcon=mxgraph.aws4.cloudfront;" vertex="1" parent="yZAqKWbI97S2XYJJdFXX-1">
          <mxGeometry x="50" y="331" width="78" height="78" as="geometry" />
        </mxCell>
        <mxCell id="yZAqKWbI97S2XYJJdFXX-8" value="" style="sketch=0;outlineConnect=0;fontColor=#232F3E;gradientColor=none;fillColor=#BF0816;strokeColor=none;dashed=0;verticalLabelPosition=bottom;verticalAlign=top;align=center;html=1;fontSize=12;fontStyle=0;aspect=fixed;pointerEvents=1;shape=mxgraph.aws4.role;" vertex="1" parent="yZAqKWbI97S2XYJJdFXX-1">
          <mxGeometry x="421" y="111" width="78" height="44" as="geometry" />
        </mxCell>
        <mxCell id="yZAqKWbI97S2XYJJdFXX-9" value="" style="endArrow=classic;startArrow=classic;html=1;rounded=0;exitX=1;exitY=0.5;exitDx=0;exitDy=0;exitPerimeter=0;entryX=0;entryY=0.5;entryDx=0;entryDy=0;entryPerimeter=0;strokeColor=#999999;strokeWidth=2;" edge="1" parent="yZAqKWbI97S2XYJJdFXX-1" source="yZAqKWbI97S2XYJJdFXX-6" target="yZAqKWbI97S2XYJJdFXX-4">
          <mxGeometry width="50" height="50" relative="1" as="geometry">
            <mxPoint x="140" y="451" as="sourcePoint" />
            <mxPoint x="190" y="401" as="targetPoint" />
          </mxGeometry>
        </mxCell>
        <mxCell id="yZAqKWbI97S2XYJJdFXX-11" value="" style="endArrow=classic;startArrow=classic;html=1;rounded=0;strokeColor=#999999;strokeWidth=2;entryX=0;entryY=0.5;entryDx=0;entryDy=0;entryPerimeter=0;" edge="1" parent="yZAqKWbI97S2XYJJdFXX-1" source="yZAqKWbI97S2XYJJdFXX-4" target="yZAqKWbI97S2XYJJdFXX-5">
          <mxGeometry width="50" height="50" relative="1" as="geometry">
            <mxPoint x="140" y="451" as="sourcePoint" />
            <mxPoint x="190" y="401" as="targetPoint" />
          </mxGeometry>
        </mxCell>
        <mxCell id="yZAqKWbI97S2XYJJdFXX-14" value="" style="endArrow=classic;html=1;rounded=0;strokeColor=#999999;strokeWidth=2;exitX=0;exitY=0.5;exitDx=0;exitDy=0;exitPerimeter=0;" edge="1" parent="yZAqKWbI97S2XYJJdFXX-1" source="yZAqKWbI97S2XYJJdFXX-2" target="yZAqKWbI97S2XYJJdFXX-3">
          <mxGeometry width="50" height="50" relative="1" as="geometry">
            <mxPoint x="140" y="451" as="sourcePoint" />
            <mxPoint x="190" y="401" as="targetPoint" />
          </mxGeometry>
        </mxCell>
        <mxCell id="yZAqKWbI97S2XYJJdFXX-15" value="" style="endArrow=classic;html=1;rounded=0;strokeColor=#999999;strokeWidth=2;entryX=0.5;entryY=1;entryDx=0;entryDy=0;entryPerimeter=0;" edge="1" parent="yZAqKWbI97S2XYJJdFXX-1" source="yZAqKWbI97S2XYJJdFXX-3" target="yZAqKWbI97S2XYJJdFXX-6">
          <mxGeometry width="50" height="50" relative="1" as="geometry">
            <mxPoint x="140" y="451" as="sourcePoint" />
            <mxPoint x="190" y="401" as="targetPoint" />
          </mxGeometry>
        </mxCell>
        <mxCell id="yZAqKWbI97S2XYJJdFXX-17" value="" style="endArrow=classic;html=1;rounded=0;strokeColor=#999999;strokeWidth=2;entryX=0;entryY=0.5;entryDx=0;entryDy=0;entryPerimeter=0;exitX=1;exitY=0.5;exitDx=0;exitDy=0;exitPerimeter=0;" edge="1" parent="yZAqKWbI97S2XYJJdFXX-1" source="yZAqKWbI97S2XYJJdFXX-5" target="yZAqKWbI97S2XYJJdFXX-7">
          <mxGeometry width="50" height="50" relative="1" as="geometry">
            <mxPoint x="140" y="451" as="sourcePoint" />
            <mxPoint x="190" y="401" as="targetPoint" />
          </mxGeometry>
        </mxCell>
        <mxCell id="yZAqKWbI97S2XYJJdFXX-18" value="" style="endArrow=classic;html=1;rounded=0;strokeColor=#999999;strokeWidth=2;exitX=0.5;exitY=1;exitDx=0;exitDy=0;exitPerimeter=0;" edge="1" parent="yZAqKWbI97S2XYJJdFXX-1" source="yZAqKWbI97S2XYJJdFXX-5" target="yZAqKWbI97S2XYJJdFXX-2">
          <mxGeometry width="50" height="50" relative="1" as="geometry">
            <mxPoint x="140" y="451" as="sourcePoint" />
            <mxPoint x="190" y="401" as="targetPoint" />
          </mxGeometry>
        </mxCell>
      </root>
    </mxGraphModel>
  </diagram>
</mxfile>
